<mxfile host="app.diagrams.net" agent="Mozilla/5.0 (Windows NT 10.0; Win64; x64) AppleWebKit/537.36 (KHTML, like Gecko) Chrome/135.0.0.0 Safari/537.36" version="26.2.14">
  <diagram name="PÃ¡gina-1" id="taq5Bg_dtgPhHQL4mSBG">
    <mxGraphModel dx="1097" dy="555" grid="1" gridSize="10" guides="1" tooltips="1" connect="1" arrows="1" fold="1" page="1" pageScale="1" pageWidth="827" pageHeight="1169" math="0" shadow="0">
      <root>
        <mxCell id="0" />
        <mxCell id="1" parent="0" />
        <mxCell id="-oOeGa9Isd8OEa_SCJHn-2" value="Propietario" style="rounded=0;whiteSpace=wrap;html=1;" vertex="1" parent="1">
          <mxGeometry x="140" y="140" width="80" height="30" as="geometry" />
        </mxCell>
        <mxCell id="-oOeGa9Isd8OEa_SCJHn-3" value="nombres" style="ellipse;whiteSpace=wrap;html=1;" vertex="1" parent="1">
          <mxGeometry x="60" y="110" width="50" height="30" as="geometry" />
        </mxCell>
        <mxCell id="-oOeGa9Isd8OEa_SCJHn-4" value="&lt;u&gt;cedula&lt;/u&gt;" style="ellipse;whiteSpace=wrap;html=1;" vertex="1" parent="1">
          <mxGeometry x="90" y="60" width="50" height="30" as="geometry" />
        </mxCell>
        <mxCell id="-oOeGa9Isd8OEa_SCJHn-6" value="apellidos" style="ellipse;whiteSpace=wrap;html=1;" vertex="1" parent="1">
          <mxGeometry x="230" y="98" width="50" height="30" as="geometry" />
        </mxCell>
        <mxCell id="-oOeGa9Isd8OEa_SCJHn-7" value="direccion" style="ellipse;whiteSpace=wrap;html=1;" vertex="1" parent="1">
          <mxGeometry x="147.5" y="40" width="60" height="30" as="geometry" />
        </mxCell>
        <mxCell id="-oOeGa9Isd8OEa_SCJHn-9" value="telefono" style="ellipse;whiteSpace=wrap;html=1;" vertex="1" parent="1">
          <mxGeometry x="220" y="60" width="60" height="30" as="geometry" />
        </mxCell>
        <mxCell id="-oOeGa9Isd8OEa_SCJHn-10" value="Mascota" style="rounded=0;whiteSpace=wrap;html=1;" vertex="1" parent="1">
          <mxGeometry x="640" y="140" width="80" height="30" as="geometry" />
        </mxCell>
        <mxCell id="-oOeGa9Isd8OEa_SCJHn-11" value="nombres" style="ellipse;whiteSpace=wrap;html=1;" vertex="1" parent="1">
          <mxGeometry x="565" y="100" width="50" height="30" as="geometry" />
        </mxCell>
        <mxCell id="-oOeGa9Isd8OEa_SCJHn-12" value="&lt;u&gt;id&lt;/u&gt;" style="ellipse;whiteSpace=wrap;html=1;" vertex="1" parent="1">
          <mxGeometry x="590" y="60" width="50" height="30" as="geometry" />
        </mxCell>
        <mxCell id="-oOeGa9Isd8OEa_SCJHn-13" value="tipo" style="ellipse;whiteSpace=wrap;html=1;" vertex="1" parent="1">
          <mxGeometry x="702.5" y="90" width="50" height="30" as="geometry" />
        </mxCell>
        <mxCell id="-oOeGa9Isd8OEa_SCJHn-14" value="fecha_nacimiento" style="ellipse;whiteSpace=wrap;html=1;" vertex="1" parent="1">
          <mxGeometry x="675" y="50" width="105" height="30" as="geometry" />
        </mxCell>
        <mxCell id="-oOeGa9Isd8OEa_SCJHn-16" value="Personal" style="rounded=0;whiteSpace=wrap;html=1;" vertex="1" parent="1">
          <mxGeometry x="469" y="310" width="80" height="30" as="geometry" />
        </mxCell>
        <mxCell id="-oOeGa9Isd8OEa_SCJHn-22" value="nombres" style="ellipse;whiteSpace=wrap;html=1;" vertex="1" parent="1">
          <mxGeometry x="483.5" y="260" width="50" height="30" as="geometry" />
        </mxCell>
        <mxCell id="-oOeGa9Isd8OEa_SCJHn-23" value="&lt;u&gt;codigo&lt;/u&gt;" style="ellipse;whiteSpace=wrap;html=1;" vertex="1" parent="1">
          <mxGeometry x="407.5" y="260" width="50" height="30" as="geometry" />
        </mxCell>
        <mxCell id="-oOeGa9Isd8OEa_SCJHn-25" value="&lt;u&gt;cedula&lt;/u&gt;" style="ellipse;whiteSpace=wrap;html=1;" vertex="1" parent="1">
          <mxGeometry x="547.5" y="260" width="60" height="30" as="geometry" />
        </mxCell>
        <mxCell id="-oOeGa9Isd8OEa_SCJHn-26" value="Familiar_Contacto" style="rounded=0;whiteSpace=wrap;html=1;" vertex="1" parent="1">
          <mxGeometry x="335" y="650" width="110" height="30" as="geometry" />
        </mxCell>
        <mxCell id="-oOeGa9Isd8OEa_SCJHn-27" value="Veterinario" style="rounded=0;whiteSpace=wrap;html=1;" vertex="1" parent="1">
          <mxGeometry x="549" y="474.01" width="110" height="30" as="geometry" />
        </mxCell>
        <mxCell id="-oOeGa9Isd8OEa_SCJHn-28" value="Auxiliar" style="rounded=0;whiteSpace=wrap;html=1;" vertex="1" parent="1">
          <mxGeometry x="347.5" y="474.01" width="110" height="30" as="geometry" />
        </mxCell>
        <mxCell id="-oOeGa9Isd8OEa_SCJHn-29" value="fecha_alta" style="ellipse;whiteSpace=wrap;html=1;" vertex="1" parent="1">
          <mxGeometry x="595" y="550" width="80" height="30" as="geometry" />
        </mxCell>
        <mxCell id="-oOeGa9Isd8OEa_SCJHn-31" value="base_cotizacion" style="ellipse;whiteSpace=wrap;html=1;" vertex="1" parent="1">
          <mxGeometry x="305" y="404.01" width="100" height="40" as="geometry" />
        </mxCell>
        <mxCell id="-oOeGa9Isd8OEa_SCJHn-32" value="&lt;u&gt;cedula&lt;/u&gt;" style="ellipse;whiteSpace=wrap;html=1;" vertex="1" parent="1">
          <mxGeometry x="330" y="690" width="50" height="30" as="geometry" />
        </mxCell>
        <mxCell id="-oOeGa9Isd8OEa_SCJHn-33" value="nombres" style="ellipse;whiteSpace=wrap;html=1;" vertex="1" parent="1">
          <mxGeometry x="395" y="690" width="50" height="30" as="geometry" />
        </mxCell>
        <mxCell id="-oOeGa9Isd8OEa_SCJHn-35" value="telefono" style="ellipse;whiteSpace=wrap;html=1;" vertex="1" parent="1">
          <mxGeometry x="455" y="660" width="60" height="30" as="geometry" />
        </mxCell>
        <mxCell id="-oOeGa9Isd8OEa_SCJHn-36" value="" style="endArrow=none;html=1;rounded=0;exitX=0.5;exitY=1;exitDx=0;exitDy=0;" edge="1" parent="1" source="-oOeGa9Isd8OEa_SCJHn-3">
          <mxGeometry width="50" height="50" relative="1" as="geometry">
            <mxPoint x="350" y="240" as="sourcePoint" />
            <mxPoint x="140" y="140" as="targetPoint" />
          </mxGeometry>
        </mxCell>
        <mxCell id="-oOeGa9Isd8OEa_SCJHn-37" value="" style="endArrow=none;html=1;rounded=0;entryX=0.75;entryY=0;entryDx=0;entryDy=0;exitX=0;exitY=0.5;exitDx=0;exitDy=0;" edge="1" parent="1" source="-oOeGa9Isd8OEa_SCJHn-6" target="-oOeGa9Isd8OEa_SCJHn-2">
          <mxGeometry width="50" height="50" relative="1" as="geometry">
            <mxPoint x="155" y="140" as="sourcePoint" />
            <mxPoint x="159" y="154" as="targetPoint" />
          </mxGeometry>
        </mxCell>
        <mxCell id="-oOeGa9Isd8OEa_SCJHn-38" value="" style="endArrow=none;html=1;rounded=0;entryX=0.375;entryY=0;entryDx=0;entryDy=0;entryPerimeter=0;exitX=1;exitY=1;exitDx=0;exitDy=0;" edge="1" parent="1" source="-oOeGa9Isd8OEa_SCJHn-4" target="-oOeGa9Isd8OEa_SCJHn-2">
          <mxGeometry width="50" height="50" relative="1" as="geometry">
            <mxPoint x="165" y="150" as="sourcePoint" />
            <mxPoint x="169" y="164" as="targetPoint" />
          </mxGeometry>
        </mxCell>
        <mxCell id="-oOeGa9Isd8OEa_SCJHn-39" value="" style="endArrow=none;html=1;rounded=0;entryX=0.5;entryY=0;entryDx=0;entryDy=0;exitX=0;exitY=1;exitDx=0;exitDy=0;" edge="1" parent="1" source="-oOeGa9Isd8OEa_SCJHn-7" target="-oOeGa9Isd8OEa_SCJHn-2">
          <mxGeometry width="50" height="50" relative="1" as="geometry">
            <mxPoint x="175" y="160" as="sourcePoint" />
            <mxPoint x="179" y="174" as="targetPoint" />
          </mxGeometry>
        </mxCell>
        <mxCell id="-oOeGa9Isd8OEa_SCJHn-40" value="" style="endArrow=none;html=1;rounded=0;entryX=0;entryY=0.5;entryDx=0;entryDy=0;" edge="1" parent="1" target="-oOeGa9Isd8OEa_SCJHn-9">
          <mxGeometry width="50" height="50" relative="1" as="geometry">
            <mxPoint x="191" y="140" as="sourcePoint" />
            <mxPoint x="400" y="190" as="targetPoint" />
          </mxGeometry>
        </mxCell>
        <mxCell id="-oOeGa9Isd8OEa_SCJHn-41" value="" style="endArrow=none;html=1;rounded=0;entryX=0.5;entryY=0;entryDx=0;entryDy=0;exitX=0.75;exitY=1;exitDx=0;exitDy=0;" edge="1" parent="1" source="-oOeGa9Isd8OEa_SCJHn-27" target="-oOeGa9Isd8OEa_SCJHn-29">
          <mxGeometry width="50" height="50" relative="1" as="geometry">
            <mxPoint x="672" y="500" as="sourcePoint" />
            <mxPoint x="715" y="434.01" as="targetPoint" />
          </mxGeometry>
        </mxCell>
        <mxCell id="-oOeGa9Isd8OEa_SCJHn-42" value="" style="endArrow=none;html=1;rounded=0;exitX=0.25;exitY=0;exitDx=0;exitDy=0;entryX=1;entryY=0.5;entryDx=0;entryDy=0;" edge="1" parent="1" source="-oOeGa9Isd8OEa_SCJHn-10" target="-oOeGa9Isd8OEa_SCJHn-11">
          <mxGeometry width="50" height="50" relative="1" as="geometry">
            <mxPoint x="510" y="240" as="sourcePoint" />
            <mxPoint x="620" y="130" as="targetPoint" />
          </mxGeometry>
        </mxCell>
        <mxCell id="-oOeGa9Isd8OEa_SCJHn-43" value="" style="endArrow=none;html=1;rounded=0;entryX=0;entryY=0.5;entryDx=0;entryDy=0;exitX=0.75;exitY=0;exitDx=0;exitDy=0;" edge="1" parent="1" source="-oOeGa9Isd8OEa_SCJHn-10" target="-oOeGa9Isd8OEa_SCJHn-13">
          <mxGeometry width="50" height="50" relative="1" as="geometry">
            <mxPoint x="520" y="250" as="sourcePoint" />
            <mxPoint x="520" y="240" as="targetPoint" />
          </mxGeometry>
        </mxCell>
        <mxCell id="-oOeGa9Isd8OEa_SCJHn-44" value="" style="endArrow=none;html=1;rounded=0;entryX=1;entryY=1;entryDx=0;entryDy=0;exitX=0.25;exitY=0;exitDx=0;exitDy=0;" edge="1" parent="1" source="-oOeGa9Isd8OEa_SCJHn-10" target="-oOeGa9Isd8OEa_SCJHn-12">
          <mxGeometry width="50" height="50" relative="1" as="geometry">
            <mxPoint x="530" y="260" as="sourcePoint" />
            <mxPoint x="530" y="250" as="targetPoint" />
          </mxGeometry>
        </mxCell>
        <mxCell id="-oOeGa9Isd8OEa_SCJHn-45" value="" style="endArrow=none;html=1;rounded=0;entryX=0;entryY=0.5;entryDx=0;entryDy=0;exitX=0.5;exitY=0;exitDx=0;exitDy=0;exitPerimeter=0;" edge="1" parent="1" source="-oOeGa9Isd8OEa_SCJHn-10" target="-oOeGa9Isd8OEa_SCJHn-14">
          <mxGeometry width="50" height="50" relative="1" as="geometry">
            <mxPoint x="540" y="270" as="sourcePoint" />
            <mxPoint x="540" y="260" as="targetPoint" />
          </mxGeometry>
        </mxCell>
        <mxCell id="-oOeGa9Isd8OEa_SCJHn-47" style="edgeStyle=orthogonalEdgeStyle;rounded=0;orthogonalLoop=1;jettySize=auto;html=1;exitX=1;exitY=0.5;exitDx=0;exitDy=0;entryX=0;entryY=0.75;entryDx=0;entryDy=0;startArrow=none;startFill=0;endArrow=none;" edge="1" parent="1" source="-oOeGa9Isd8OEa_SCJHn-46" target="-oOeGa9Isd8OEa_SCJHn-10">
          <mxGeometry relative="1" as="geometry">
            <Array as="points">
              <mxPoint x="630" y="160" />
            </Array>
          </mxGeometry>
        </mxCell>
        <mxCell id="-oOeGa9Isd8OEa_SCJHn-48" style="edgeStyle=orthogonalEdgeStyle;rounded=0;orthogonalLoop=1;jettySize=auto;html=1;exitX=0;exitY=0.5;exitDx=0;exitDy=0;entryX=1;entryY=0.75;entryDx=0;entryDy=0;endArrow=none;startFill=0;" edge="1" parent="1" source="-oOeGa9Isd8OEa_SCJHn-46" target="-oOeGa9Isd8OEa_SCJHn-2">
          <mxGeometry relative="1" as="geometry" />
        </mxCell>
        <mxCell id="-oOeGa9Isd8OEa_SCJHn-46" value="lleva" style="shape=rhombus;perimeter=rhombusPerimeter;whiteSpace=wrap;html=1;align=center;" vertex="1" parent="1">
          <mxGeometry x="360" y="130" width="120" height="60" as="geometry" />
        </mxCell>
        <mxCell id="-oOeGa9Isd8OEa_SCJHn-49" value="(1,1)" style="text;html=1;align=center;verticalAlign=middle;resizable=0;points=[];autosize=1;strokeColor=none;fillColor=none;" vertex="1" parent="1">
          <mxGeometry x="285" y="128" width="50" height="30" as="geometry" />
        </mxCell>
        <mxCell id="-oOeGa9Isd8OEa_SCJHn-52" value="(1:N)" style="text;html=1;align=center;verticalAlign=middle;resizable=0;points=[];autosize=1;strokeColor=none;fillColor=none;" vertex="1" parent="1">
          <mxGeometry x="515" y="128" width="50" height="30" as="geometry" />
        </mxCell>
        <mxCell id="-oOeGa9Isd8OEa_SCJHn-53" value="(1,N)" style="text;html=1;align=center;verticalAlign=middle;resizable=0;points=[];autosize=1;strokeColor=none;fillColor=none;" vertex="1" parent="1">
          <mxGeometry x="395" y="98" width="50" height="30" as="geometry" />
        </mxCell>
        <mxCell id="-oOeGa9Isd8OEa_SCJHn-54" value="" style="strokeWidth=2;html=1;shape=mxgraph.flowchart.merge_or_storage;whiteSpace=wrap;" vertex="1" parent="1">
          <mxGeometry x="483.5" y="380" width="51" height="15" as="geometry" />
        </mxCell>
        <mxCell id="-oOeGa9Isd8OEa_SCJHn-56" value="" style="endArrow=none;html=1;rounded=0;entryX=0.428;entryY=0.973;entryDx=0;entryDy=0;entryPerimeter=0;exitX=0.381;exitY=-0.017;exitDx=0;exitDy=0;exitPerimeter=0;" edge="1" parent="1" source="-oOeGa9Isd8OEa_SCJHn-54" target="-oOeGa9Isd8OEa_SCJHn-16">
          <mxGeometry width="50" height="50" relative="1" as="geometry">
            <mxPoint x="503.5" y="378" as="sourcePoint" />
            <mxPoint x="437.5" y="260" as="targetPoint" />
          </mxGeometry>
        </mxCell>
        <mxCell id="-oOeGa9Isd8OEa_SCJHn-57" value="especialidad" style="ellipse;whiteSpace=wrap;html=1;" vertex="1" parent="1">
          <mxGeometry x="500" y="550" width="80" height="30" as="geometry" />
        </mxCell>
        <mxCell id="-oOeGa9Isd8OEa_SCJHn-58" value="" style="endArrow=none;html=1;rounded=0;entryX=0.5;entryY=0;entryDx=0;entryDy=0;exitX=0.658;exitY=0.951;exitDx=0;exitDy=0;exitPerimeter=0;" edge="1" parent="1" source="-oOeGa9Isd8OEa_SCJHn-27" target="-oOeGa9Isd8OEa_SCJHn-57">
          <mxGeometry width="50" height="50" relative="1" as="geometry">
            <mxPoint x="685" y="484.01" as="sourcePoint" />
            <mxPoint x="580" y="474.01" as="targetPoint" />
          </mxGeometry>
        </mxCell>
        <mxCell id="-oOeGa9Isd8OEa_SCJHn-59" value="" style="endArrow=none;html=1;rounded=0;entryX=0.551;entryY=1.015;entryDx=0;entryDy=0;entryPerimeter=0;exitX=0.563;exitY=-0.083;exitDx=0;exitDy=0;exitPerimeter=0;" edge="1" parent="1" source="-oOeGa9Isd8OEa_SCJHn-54" target="-oOeGa9Isd8OEa_SCJHn-16">
          <mxGeometry width="50" height="50" relative="1" as="geometry">
            <mxPoint x="519.5" y="370" as="sourcePoint" />
            <mxPoint x="519.5" y="350" as="targetPoint" />
          </mxGeometry>
        </mxCell>
        <mxCell id="-oOeGa9Isd8OEa_SCJHn-60" value="" style="endArrow=none;html=1;rounded=0;entryX=0.5;entryY=1;entryDx=0;entryDy=0;exitX=0.5;exitY=0;exitDx=0;exitDy=0;" edge="1" parent="1" source="-oOeGa9Isd8OEa_SCJHn-28" target="-oOeGa9Isd8OEa_SCJHn-31">
          <mxGeometry width="50" height="50" relative="1" as="geometry">
            <mxPoint x="345" y="394.01" as="sourcePoint" />
            <mxPoint x="346" y="353.01" as="targetPoint" />
          </mxGeometry>
        </mxCell>
        <mxCell id="-oOeGa9Isd8OEa_SCJHn-61" value="" style="endArrow=none;html=1;rounded=0;entryX=0.66;entryY=0.691;entryDx=0;entryDy=0;exitX=0.5;exitY=0;exitDx=0;exitDy=0;entryPerimeter=0;" edge="1" parent="1" source="-oOeGa9Isd8OEa_SCJHn-27" target="-oOeGa9Isd8OEa_SCJHn-54">
          <mxGeometry width="50" height="50" relative="1" as="geometry">
            <mxPoint x="705" y="470.01" as="sourcePoint" />
            <mxPoint x="767.5260000000003" y="395.0049999999999" as="targetPoint" />
          </mxGeometry>
        </mxCell>
        <mxCell id="-oOeGa9Isd8OEa_SCJHn-62" value="" style="endArrow=none;html=1;rounded=0;" edge="1" parent="1" source="-oOeGa9Isd8OEa_SCJHn-28">
          <mxGeometry width="50" height="50" relative="1" as="geometry">
            <mxPoint x="602.5" y="490" as="sourcePoint" />
            <mxPoint x="500" y="389" as="targetPoint" />
          </mxGeometry>
        </mxCell>
        <mxCell id="-oOeGa9Isd8OEa_SCJHn-63" value="" style="endArrow=none;html=1;rounded=0;entryX=0.5;entryY=1;entryDx=0;entryDy=0;" edge="1" parent="1" target="-oOeGa9Isd8OEa_SCJHn-23">
          <mxGeometry width="50" height="50" relative="1" as="geometry">
            <mxPoint x="509.5" y="311" as="sourcePoint" />
            <mxPoint x="505.5" y="401" as="targetPoint" />
          </mxGeometry>
        </mxCell>
        <mxCell id="-oOeGa9Isd8OEa_SCJHn-64" value="" style="endArrow=none;html=1;rounded=0;entryX=0.5;entryY=1;entryDx=0;entryDy=0;exitX=0.5;exitY=0;exitDx=0;exitDy=0;" edge="1" parent="1" source="-oOeGa9Isd8OEa_SCJHn-16" target="-oOeGa9Isd8OEa_SCJHn-22">
          <mxGeometry width="50" height="50" relative="1" as="geometry">
            <mxPoint x="459.5" y="491" as="sourcePoint" />
            <mxPoint x="515.5" y="411" as="targetPoint" />
          </mxGeometry>
        </mxCell>
        <mxCell id="-oOeGa9Isd8OEa_SCJHn-65" value="" style="endArrow=none;html=1;rounded=0;entryX=0;entryY=1;entryDx=0;entryDy=0;" edge="1" parent="1" target="-oOeGa9Isd8OEa_SCJHn-25">
          <mxGeometry width="50" height="50" relative="1" as="geometry">
            <mxPoint x="509.5" y="309" as="sourcePoint" />
            <mxPoint x="525.5" y="421" as="targetPoint" />
          </mxGeometry>
        </mxCell>
        <mxCell id="-oOeGa9Isd8OEa_SCJHn-66" value="Consulta" style="rounded=0;whiteSpace=wrap;html=1;" vertex="1" parent="1">
          <mxGeometry x="690" y="630" width="110" height="30" as="geometry" />
        </mxCell>
        <mxCell id="-oOeGa9Isd8OEa_SCJHn-69" value="pasa consulta" style="shape=rhombus;perimeter=rhombusPerimeter;whiteSpace=wrap;html=1;align=center;" vertex="1" parent="1">
          <mxGeometry x="620" y="290" width="120" height="60" as="geometry" />
        </mxCell>
        <mxCell id="-oOeGa9Isd8OEa_SCJHn-71" value="" style="endArrow=none;html=1;rounded=0;entryX=0.5;entryY=1;entryDx=0;entryDy=0;exitX=1;exitY=0.5;exitDx=0;exitDy=0;" edge="1" parent="1" source="-oOeGa9Isd8OEa_SCJHn-27" target="-oOeGa9Isd8OEa_SCJHn-69">
          <mxGeometry width="50" height="50" relative="1" as="geometry">
            <mxPoint x="370" y="440" as="sourcePoint" />
            <mxPoint x="420" y="390" as="targetPoint" />
            <Array as="points">
              <mxPoint x="680" y="490" />
            </Array>
          </mxGeometry>
        </mxCell>
        <mxCell id="-oOeGa9Isd8OEa_SCJHn-72" value="" style="endArrow=none;html=1;rounded=0;entryX=0.5;entryY=1;entryDx=0;entryDy=0;exitX=0.5;exitY=0;exitDx=0;exitDy=0;" edge="1" parent="1" source="-oOeGa9Isd8OEa_SCJHn-69" target="-oOeGa9Isd8OEa_SCJHn-10">
          <mxGeometry width="50" height="50" relative="1" as="geometry">
            <mxPoint x="550" y="460" as="sourcePoint" />
            <mxPoint x="600" y="410" as="targetPoint" />
          </mxGeometry>
        </mxCell>
        <mxCell id="-oOeGa9Isd8OEa_SCJHn-74" value="(1,N)" style="text;html=1;align=center;verticalAlign=middle;resizable=0;points=[];autosize=1;strokeColor=none;fillColor=none;" vertex="1" parent="1">
          <mxGeometry x="690" y="208" width="50" height="30" as="geometry" />
        </mxCell>
        <mxCell id="-oOeGa9Isd8OEa_SCJHn-75" value="(0,N)" style="text;html=1;align=center;verticalAlign=middle;resizable=0;points=[];autosize=1;strokeColor=none;fillColor=none;" vertex="1" parent="1">
          <mxGeometry x="680" y="395" width="50" height="30" as="geometry" />
        </mxCell>
        <mxCell id="-oOeGa9Isd8OEa_SCJHn-76" value="(N, M)" style="text;html=1;align=center;verticalAlign=middle;resizable=0;points=[];autosize=1;strokeColor=none;fillColor=none;" vertex="1" parent="1">
          <mxGeometry x="735" y="305" width="60" height="30" as="geometry" />
        </mxCell>
        <mxCell id="-oOeGa9Isd8OEa_SCJHn-77" value="fecha" style="ellipse;whiteSpace=wrap;html=1;" vertex="1" parent="1">
          <mxGeometry x="752.5" y="380" width="50" height="30" as="geometry" />
        </mxCell>
        <mxCell id="-oOeGa9Isd8OEa_SCJHn-78" value="" style="endArrow=none;html=1;rounded=0;entryX=0.5;entryY=0;entryDx=0;entryDy=0;exitX=0.667;exitY=0.833;exitDx=0;exitDy=0;exitPerimeter=0;" edge="1" parent="1" source="-oOeGa9Isd8OEa_SCJHn-69" target="-oOeGa9Isd8OEa_SCJHn-77">
          <mxGeometry width="50" height="50" relative="1" as="geometry">
            <mxPoint x="590" y="400" as="sourcePoint" />
            <mxPoint x="740" y="360" as="targetPoint" />
          </mxGeometry>
        </mxCell>
        <mxCell id="-oOeGa9Isd8OEa_SCJHn-79" value="diagnostico" style="ellipse;whiteSpace=wrap;html=1;" vertex="1" parent="1">
          <mxGeometry x="802.5" y="340" width="80" height="30" as="geometry" />
        </mxCell>
        <mxCell id="-oOeGa9Isd8OEa_SCJHn-80" value="" style="endArrow=none;html=1;rounded=0;entryX=0;entryY=0.5;entryDx=0;entryDy=0;exitX=1;exitY=1;exitDx=0;exitDy=0;" edge="1" parent="1" source="-oOeGa9Isd8OEa_SCJHn-69" target="-oOeGa9Isd8OEa_SCJHn-79">
          <mxGeometry width="50" height="50" relative="1" as="geometry">
            <mxPoint x="710" y="350" as="sourcePoint" />
            <mxPoint x="788" y="390" as="targetPoint" />
          </mxGeometry>
        </mxCell>
      </root>
    </mxGraphModel>
  </diagram>
</mxfile>
